# Blender v2.80 (sub 75) OBJ File: ''
# www.blender.org
mtllib stativ_oberePlatte.mtl
o Decke-001.020
v -0.309788 0.092313 0.232085
v -0.309788 -0.067687 0.232085
v 0.290215 -0.067687 0.232085
v 0.290215 0.092313 0.232085
v -0.309788 0.092313 -0.367916
v -0.309788 -0.067687 -0.367916
v 0.290215 -0.067687 -0.367916
v 0.290215 0.092313 -0.367916
vt 30.603397 1.405000
vt 30.603397 1.405000
vt 30.603397 1.405000
vt 30.603397 1.405000
vt 30.603397 1.405000
vt 30.603397 1.405000
vt 30.603397 1.405000
vt 30.603397 1.405000
vn -0.5774 0.5774 0.5774
vn -0.5774 -0.5774 0.5774
vn 0.5774 -0.5774 0.5774
vn 0.5774 0.5774 0.5774
vn -0.5774 0.5774 -0.5774
vn -0.5774 -0.5774 -0.5774
vn 0.5774 -0.5774 -0.5774
vn 0.5774 0.5774 -0.5774
usemtl Kunststoff_PE,_weiss.002
s 1
f 1/1/1 2/2/2 3/3/3
f 1/1/1 3/3/3 4/4/4
f 5/5/5 6/6/6 2/2/2
f 5/5/5 2/2/2 1/1/1
f 3/3/3 2/2/2 6/6/6
f 3/3/3 6/6/6 7/7/7
f 4/4/4 3/3/3 7/7/7
f 4/4/4 7/7/7 8/8/8
f 5/5/5 1/1/1 4/4/4
f 5/5/5 4/4/4 8/8/8
f 8/8/8 7/7/7 6/6/6
f 8/8/8 6/6/6 5/5/5
