# Blender v2.80 (sub 75) OBJ File: 'MVE_v2.0.blend'
# www.blender.org
mtllib MVE_v2.3.mtl
o Cube_Cube.001
v -8.181820 0.499995 17.392513
v -8.180000 0.499997 17.378300
v -8.180000 -0.500003 17.378300
v -7.813190 0.503077 17.011032
v -7.813190 0.503078 17.011499
v -7.813190 -2.184571 17.011499
v -6.813190 0.503078 16.011499
v -7.813190 -0.496923 17.011032
v -8.181818 0.499995 17.392513
v -10.000000 -0.500005 19.198299
v -10.000000 0.499995 19.198299
v -8.181820 -0.500005 17.392513
v -8.178425 -0.500005 17.362579
v -8.181576 -2.213547 17.394020
v -7.822549 0.524081 -16.995392
v -10.000000 -0.499995 -19.172800
v -8.181817 0.500005 -17.355455
v -7.822550 0.524081 -16.995399
v -7.822549 0.524081 -16.995392
v -6.813190 -2.184571 16.011499
v -9.618395 -1.361253 18.816710
v -6.813192 0.503087 -15.988479
v -6.813192 -2.184562 -15.988479
v -6.813192 0.503087 -15.988479
v -7.822550 0.523087 -16.995399
v -7.822550 -2.164561 -16.995399
v -7.822549 -0.475919 -16.995392
v -7.822550 -0.475919 -16.995399
v -8.191180 -0.499995 -17.358601
v -8.191180 0.500005 -17.358601
v -10.000000 0.500005 -19.172800
v -8.189604 -0.499995 -17.352049
v -9.618390 -1.361243 -18.791241
v -8.192756 -2.213537 -17.365150
v -10.000000 0.499995 19.198299
v -10.000000 0.500005 -19.172850
vt 0.000000 0.000000
vt 0.000000 0.000000
vt 0.000000 0.000000
vt 0.000000 0.000000
vt 0.000000 0.000000
vt 0.000000 0.000000
vt 0.625000 0.272727
vt 0.625000 0.272727
vt 0.000000 0.000000
vt 0.000000 0.000000
vt 0.000000 0.000000
vt 0.000000 0.000000
vt 0.000000 0.000000
vt 0.000000 0.000000
vt 0.000000 0.000000
vt 0.375000 0.977273
vt 0.000000 0.000000
vt 0.000000 0.000000
vt 0.000000 0.000000
vt 0.000000 0.000000
vt 0.000000 0.000000
vt 0.000000 0.000000
vt 0.852273 0.750000
vt 0.852273 0.750000
vt 0.000000 0.000000
vt 0.000000 0.000000
vt 0.000000 0.000000
vt 0.000000 0.000000
vt 0.000000 0.000000
vt 0.000000 0.000000
vt 0.000000 0.000000
vt 0.000000 0.000000
vn 0.7075 0.0000 0.7067
vn 0.7071 0.0000 0.7071
vn -0.0000 1.0000 0.0000
vn 0.0369 -0.9993 -0.0003
vn 0.0368 -0.9993 -0.0003
vn 1.0000 -0.0018 -0.0003
vn 0.9259 0.0033 0.3779
vn 0.5010 -0.7952 0.3416
vn 0.1980 -0.9802 -0.0002
vn -0.1845 -0.6359 0.7494
vn -0.8240 -0.5665 0.0000
vn -0.3183 -0.5442 -0.7763
vn 0.5492 -0.8357 -0.0003
vn 0.7143 -0.6331 0.2983
vn -0.3248 -0.5461 0.7722
vn 1.0000 0.0000 -0.0000
vn -0.8935 0.4490 0.0004
vn -0.3236 0.5498 -0.7701
vn -0.9148 -0.2228 0.3368
vn 0.7063 0.0000 -0.7080
vn -0.7866 -0.2481 -0.5655
vn 0.9923 0.0000 -0.1240
vn 0.7018 0.0000 -0.7123
vn 0.0100 1.0000 0.0003
vn 0.7080 -0.0040 -0.7062
vn -0.3821 -0.0052 -0.9241
vn 0.7087 0.0032 -0.7055
vn -1.0000 0.0000 0.0000
usemtl None
s off
f 3/1/1 8/2/1 4/3/1 2/4/1
f 2/4/2 11/5/2 10/6/2 3/1/2
f 11/5/3 2/4/3 17/7/3 31/8/3
f 29/9/4 28/10/4 8/2/4 3/1/4
f 9/11/5 30/12/5 19/13/5 5/14/5
s 1
f 32/15/6 13/16/7 14/17/8 34/18/9
f 34/18/9 14/17/8 21/19/10 33/20/11
f 26/21/12 23/22/13 20/23/14 6/24/15
f 23/22/13 22/25/16 7/26/16 20/23/14
f 26/21/12 6/24/15 5/14/17 25/27/18
f 20/23/14 7/26/2 5/14/2 6/24/15
f 14/17/8 13/16/7 10/6/19 21/19/10
f 23/22/20 26/21/12 25/27/18 22/25/20
f 16/28/21 33/20/11 21/19/10 10/6/19
f 15/29/22 27/30/22 28/10/22 18/31/22
f 18/31/23 28/10/23 29/9/23 30/12/23
f 7/26/24 24/32/24 25/27/18 5/14/17
f 17/7/25 32/15/25 16/28/21 31/8/26
f 33/20/27 16/28/27 32/15/27 34/18/27
f 16/28/21 10/6/19 11/5/28 31/8/26
l 3 13
l 22 24
l 35 36
l 11 36
